<svg xmlns="http://www.w3.org/2000/svg" viewBox="0 0 736 601" width="736" height="601">
<rect width="735.5700532885033" height="600.98466380515" fill="white"/>
<polygon points="293.5,80.3 655.6,112.0 625.3,457.7 263.3,426.0 293.5,80.3" fill="#f0f7ff" stroke="none"/>
<polygon points="286.1,96.6 262.8,363.0 274.7,364.1 298.0,97.7" fill="#333" stroke="#111" stroke-width="1"/>
<polygon points="433.8,107.3 410.4,374.6 422.4,375.6 445.8,108.3" fill="#333" stroke="#111" stroke-width="1"/>
<polygon points="547.6,117.8 517.3,464.0 529.2,465.1 559.5,118.9" fill="#333" stroke="#111" stroke-width="1"/>
<polygon points="648.0,129.5 613.8,520.5 625.8,521.5 660.0,130.5" fill="#333" stroke="#111" stroke-width="1"/>
<polygon points="460.1,100.9 545.2,108.3 546.2,96.4 461.1,88.9" fill="#333" stroke="#111" stroke-width="1"/>
<polygon points="103.6,86.0 653.4,134.1 654.4,122.1 104.6,74.0" fill="#333" stroke="#111" stroke-width="1"/>
<polygon points="79.5,112.4 652.7,162.5 653.8,150.6 80.5,100.4" fill="#333" stroke="#111" stroke-width="1"/>
<polygon points="92.8,124.3 651.6,173.2 652.6,161.3 93.9,112.4" fill="#333" stroke="#111" stroke-width="1"/>
<polygon points="273.3,298.1 637.5,329.9 638.6,318.0 274.4,286.1" fill="#333" stroke="#111" stroke-width="1"/>
<polygon points="269.1,370.9 634.0,402.8 635.1,390.9 270.2,359.0" fill="#333" stroke="#111" stroke-width="1"/>
<polygon points="442.3,447.7 623.0,463.5 624.0,451.6 443.3,435.8" fill="#333" stroke="#111" stroke-width="1"/>
<line x1="422.0" y1="311.3" x2="416.5" y2="373.7" stroke="#2196F3" stroke-width="3" stroke-dasharray="6,3"/>
<circle cx="422.0" cy="311.3" r="31.3" fill="none" stroke="#2196F3" stroke-width="1" stroke-dasharray="3,3" opacity="0.4"/>
<line x1="553.4" y1="119.6" x2="550.3" y2="155.8" stroke="#4CAF50" stroke-width="4"/>
<line x1="553.4" y1="119.6" x2="550.3" y2="155.8" stroke="white" stroke-width="2"/>
<line x1="549.6" y1="162.9" x2="541.2" y2="259.3" stroke="#2196F3" stroke-width="3" stroke-dasharray="6,3"/>
<circle cx="549.6" cy="162.9" r="48.4" fill="none" stroke="#2196F3" stroke-width="1" stroke-dasharray="3,3" opacity="0.4"/>
<line x1="540.0" y1="273.3" x2="537.1" y2="306.0" stroke="#4CAF50" stroke-width="4"/>
<line x1="540.0" y1="273.3" x2="537.1" y2="306.0" stroke="white" stroke-width="2"/>
<line x1="535.7" y1="321.8" x2="530.2" y2="384.7" stroke="#2196F3" stroke-width="3" stroke-dasharray="6,3"/>
<circle cx="535.7" cy="321.8" r="31.6" fill="none" stroke="#2196F3" stroke-width="1" stroke-dasharray="3,3" opacity="0.4"/>
<line x1="522.8" y1="469.3" x2="507.2" y2="647.5" stroke="#4CAF50" stroke-width="4"/>
<line x1="522.8" y1="469.3" x2="507.2" y2="647.5" stroke="white" stroke-width="2"/>
<line x1="110.3" y1="80.5" x2="279.1" y2="95.3" stroke="#4CAF50" stroke-width="4"/>
<line x1="110.3" y1="80.5" x2="279.1" y2="95.3" stroke="white" stroke-width="2"/>
<line x1="132.6" y1="111.0" x2="231.1" y2="119.6" stroke="#2196F3" stroke-width="3" stroke-dasharray="6,3"/>
<circle cx="132.6" cy="111.0" r="49.5" fill="none" stroke="#2196F3" stroke-width="1" stroke-dasharray="3,3" opacity="0.4"/>
<line x1="292.3" y1="125.0" x2="440.7" y2="137.9" stroke="#4CAF50" stroke-width="4"/>
<line x1="292.3" y1="125.0" x2="440.7" y2="137.9" stroke="white" stroke-width="2"/>
<line x1="536.2" y1="146.3" x2="590.8" y2="151.1" stroke="#4CAF50" stroke-width="4"/>
<line x1="536.2" y1="146.3" x2="590.8" y2="151.1" stroke="white" stroke-width="2"/>
<line x1="609.3" y1="152.7" x2="649.9" y2="156.2" stroke="#4CAF50" stroke-width="4"/>
<line x1="609.3" y1="152.7" x2="649.9" y2="156.2" stroke="white" stroke-width="2"/>
<line x1="133.3" y1="121.8" x2="194.1" y2="127.2" stroke="#2196F3" stroke-width="3" stroke-dasharray="6,3"/>
<circle cx="133.3" cy="121.8" r="30.5" fill="none" stroke="#2196F3" stroke-width="1" stroke-dasharray="3,3" opacity="0.4"/>
<line x1="249.2" y1="132.0" x2="283.3" y2="135.0" stroke="#4CAF50" stroke-width="4"/>
<line x1="249.2" y1="132.0" x2="283.3" y2="135.0" stroke="white" stroke-width="2"/>
<line x1="289.8" y1="135.5" x2="435.6" y2="148.3" stroke="#4CAF50" stroke-width="4"/>
<line x1="289.8" y1="135.5" x2="435.6" y2="148.3" stroke="white" stroke-width="2"/>
<line x1="290.9" y1="293.6" x2="418.9" y2="304.8" stroke="#2196F3" stroke-width="3" stroke-dasharray="6,3"/>
<circle cx="290.9" cy="293.6" r="64.3" fill="none" stroke="#2196F3" stroke-width="1" stroke-dasharray="3,3" opacity="0.4"/>
<line x1="456.0" y1="442.9" x2="517.7" y2="448.3" stroke="#2196F3" stroke-width="3" stroke-dasharray="6,3"/>
<circle cx="456.0" cy="442.9" r="30.9" fill="none" stroke="#2196F3" stroke-width="1" stroke-dasharray="3,3" opacity="0.4"/>
<line x1="267.1" y1="95.0" x2="243.8" y2="361.4" stroke="#999" stroke-width="0.5" stroke-dasharray="3,3"/>
<text x="255.5" y="224.2" text-anchor="middle" font-size="11" font-family="system-ui" fill="#666" transform="rotate(-85.0,255.5,224.2)">2.67m</text>
<line x1="414.9" y1="105.6" x2="391.5" y2="372.9" stroke="#999" stroke-width="0.5" stroke-dasharray="3,3"/>
<text x="403.2" y="235.3" text-anchor="middle" font-size="11" font-family="system-ui" fill="#666" transform="rotate(-85.0,403.2,235.3)">2.68m</text>
<line x1="528.6" y1="116.2" x2="498.3" y2="462.4" stroke="#999" stroke-width="0.5" stroke-dasharray="3,3"/>
<text x="513.5" y="285.3" text-anchor="middle" font-size="11" font-family="system-ui" fill="#666" transform="rotate(-85.0,513.5,285.3)">3.47m</text>
<line x1="629.1" y1="127.8" x2="594.9" y2="518.8" stroke="#999" stroke-width="0.5" stroke-dasharray="3,3"/>
<text x="612.0" y="319.3" text-anchor="middle" font-size="11" font-family="system-ui" fill="#666" transform="rotate(-85.0,612.0,319.3)">3.92m</text>
<line x1="458.4" y1="119.8" x2="543.5" y2="127.3" stroke="#999" stroke-width="0.5" stroke-dasharray="3,3"/>
<text x="501.0" y="119.6" text-anchor="middle" font-size="11" font-family="system-ui" fill="#666" transform="rotate(5.0,501.0,119.6)">0.85m</text>
<line x1="101.9" y1="104.9" x2="651.7" y2="153.0" stroke="#999" stroke-width="0.5" stroke-dasharray="3,3"/>
<text x="376.8" y="125.0" text-anchor="middle" font-size="11" font-family="system-ui" fill="#666" transform="rotate(5.0,376.8,125.0)">5.52m</text>
<line x1="77.8" y1="131.3" x2="651.1" y2="181.4" stroke="#999" stroke-width="0.5" stroke-dasharray="3,3"/>
<text x="364.4" y="152.4" text-anchor="middle" font-size="11" font-family="system-ui" fill="#666" transform="rotate(5.0,364.4,152.4)">5.75m</text>
<line x1="91.2" y1="143.3" x2="649.9" y2="192.1" stroke="#999" stroke-width="0.5" stroke-dasharray="3,3"/>
<text x="370.5" y="163.7" text-anchor="middle" font-size="11" font-family="system-ui" fill="#666" transform="rotate(5.0,370.5,163.7)">5.61m</text>
<line x1="271.7" y1="317.0" x2="635.9" y2="348.9" stroke="#999" stroke-width="0.5" stroke-dasharray="3,3"/>
<text x="453.8" y="328.9" text-anchor="middle" font-size="11" font-family="system-ui" fill="#666" transform="rotate(5.0,453.8,328.9)">3.66m</text>
<line x1="267.5" y1="389.8" x2="632.3" y2="421.8" stroke="#999" stroke-width="0.5" stroke-dasharray="3,3"/>
<text x="449.9" y="401.8" text-anchor="middle" font-size="11" font-family="system-ui" fill="#666" transform="rotate(5.0,449.9,401.8)">3.66m</text>
<line x1="440.6" y1="466.6" x2="621.3" y2="482.4" stroke="#999" stroke-width="0.5" stroke-dasharray="3,3"/>
<text x="531.0" y="470.5" text-anchor="middle" font-size="11" font-family="system-ui" fill="#666" transform="rotate(5.0,531.0,470.5)">1.81m</text>
<text x="426.2" y="231.3" text-anchor="middle" font-size="18" font-weight="bold" font-family="system-ui" fill="#333">12.6 m²</text>
<text x="426.2" y="249.3" text-anchor="middle" font-size="12" font-family="system-ui" fill="#999">(136 ft²)</text>
<line x1="80" y1="580.98466380515" x2="180" y2="580.98466380515" stroke="#666" stroke-width="2"/>
<line x1="80" y1="575.98466380515" x2="80" y2="585.98466380515" stroke="#666" stroke-width="1"/>
<line x1="180" y1="575.98466380515" x2="180" y2="585.98466380515" stroke="#666" stroke-width="1"/>
<text x="130.0" y="595.98466380515" text-anchor="middle" font-size="10" fill="#666">1m</text>
</svg>