<svg xmlns="http://www.w3.org/2000/svg" viewBox="0 0 818 671" width="818" height="671">
<rect width="817.8756445905572" height="670.7002365594842" fill="white"/>
<polygon points="274.8,422.2 303.0,99.5 618.6,107.7 737.9,137.6 703.6,529.3 582.7,518.7 274.8,422.2" fill="#f5f8fc" stroke="none"/>
<polygon points="294.2,97.6 266.0,419.1 284.0,420.7 312.1,99.1" fill="#2a2a2a" stroke="#111" stroke-width="0.5"/>
<polygon points="608.2,123.9 573.7,517.9 591.6,519.4 626.1,125.5" fill="#2a2a2a" stroke="#111" stroke-width="0.5"/>
<polygon points="728.8,137.9 689.3,589.9 707.2,591.5 746.7,139.5" fill="#2a2a2a" stroke="#111" stroke-width="0.5"/>
<polygon points="510.6,107.3 606.3,115.7 607.9,97.8 512.2,89.4" fill="#2a2a2a" stroke="#111" stroke-width="0.5"/>
<polygon points="79.2,89.0 736.9,146.5 738.4,128.6 80.8,71.0" fill="#2a2a2a" stroke="#111" stroke-width="0.5"/>
<polygon points="274.9,431.2 714.5,469.7 716.1,451.7 276.5,413.3" fill="#2a2a2a" stroke="#111" stroke-width="0.5"/>
<polygon points="581.8,527.6 703.1,538.3 704.7,520.3 583.3,509.7" fill="#2a2a2a" stroke="#111" stroke-width="0.5"/>
<rect x="593.8" y="127.4" width="29.5" height="190.7" fill="white" stroke="none"/>
<line x1="611.5" y1="127.5" x2="594.9" y2="317.1" stroke="#333" stroke-width="2"/>
<line x1="622.2" y1="128.4" x2="605.6" y2="318.0" stroke="#333" stroke-width="2"/>
<rect x="577.2" y="370.8" width="30.1" height="76.0" fill="white" stroke="none"/>
<path d="M 595.5,371.8 A 74.2,74.2 0 0 0 669.4,378.3" fill="none" stroke="#2196F3" stroke-width="1" stroke-dasharray="4,2"/>
<line x1="595.5" y1="371.8" x2="669.4" y2="378.3" stroke="#2196F3" stroke-width="1"/>
<rect x="87.4" y="74.2" width="202.2" height="30.5" fill="white" stroke="none"/>
<line x1="87.4" y1="86.1" x2="288.5" y2="103.7" stroke="#333" stroke-width="2"/>
<line x1="88.4" y1="75.3" x2="289.4" y2="92.9" stroke="#333" stroke-width="2"/>
<rect x="473.2" y="497.4" width="110.3" height="33.1" fill="white" stroke="none"/>
<path d="M 474.3,509.2 A 108.7,108.7 0 0 0 483.7,401.0" fill="none" stroke="#2196F3" stroke-width="1" stroke-dasharray="4,2"/>
<line x1="474.3" y1="509.2" x2="483.7" y2="401.0" stroke="#2196F3" stroke-width="1"/>
<line x1="273.2" y1="95.7" x2="245.1" y2="417.3" stroke="#bbb" stroke-width="0.5" stroke-dasharray="3,3"/>
<text x="259.2" y="251.5" text-anchor="middle" font-size="11" font-family="system-ui" fill="#666" transform="rotate(-85.0,259.2,251.5)">2.69m</text>
<line x1="587.3" y1="122.1" x2="552.8" y2="516.0" stroke="#bbb" stroke-width="0.5" stroke-dasharray="3,3"/>
<text x="570.0" y="314.0" text-anchor="middle" font-size="11" font-family="system-ui" fill="#666" transform="rotate(-85.0,570.0,314.0)">3.30m</text>
<line x1="707.9" y1="136.1" x2="668.3" y2="588.1" stroke="#bbb" stroke-width="0.5" stroke-dasharray="3,3"/>
<text x="688.1" y="357.1" text-anchor="middle" font-size="11" font-family="system-ui" fill="#666" transform="rotate(-85.0,688.1,357.1)">3.78m</text>
<line x1="508.8" y1="128.2" x2="604.5" y2="136.6" stroke="#bbb" stroke-width="0.5" stroke-dasharray="3,3"/>
<text x="556.6" y="127.4" text-anchor="middle" font-size="11" font-family="system-ui" fill="#666" transform="rotate(5.0,556.6,127.4)">0.80m</text>
<line x1="77.4" y1="109.9" x2="735.0" y2="167.4" stroke="#bbb" stroke-width="0.5" stroke-dasharray="3,3"/>
<text x="406.2" y="133.7" text-anchor="middle" font-size="11" font-family="system-ui" fill="#666" transform="rotate(5.0,406.2,133.7)">5.50m</text>
<line x1="273.1" y1="452.1" x2="712.7" y2="490.6" stroke="#bbb" stroke-width="0.5" stroke-dasharray="3,3"/>
<text x="492.9" y="466.3" text-anchor="middle" font-size="11" font-family="system-ui" fill="#666" transform="rotate(5.0,492.9,466.3)">3.68m</text>
<line x1="579.9" y1="548.6" x2="701.3" y2="559.2" stroke="#bbb" stroke-width="0.5" stroke-dasharray="3,3"/>
<text x="640.6" y="548.9" text-anchor="middle" font-size="11" font-family="system-ui" fill="#666" transform="rotate(5.0,640.6,548.9)">1.01m</text>
<text x="499.3" y="319.6" text-anchor="middle" font-size="20" font-weight="bold" fill="#333">11.5 m²</text>
<text x="499.3" y="339.6" text-anchor="middle" font-size="13" fill="#999">(123 ft²)</text>
<line x1="80" y1="645.7002365594842" x2="200" y2="645.7002365594842" stroke="#666" stroke-width="2"/>
<text x="140.0" y="660.7002365594842" text-anchor="middle" font-size="10" fill="#666">1m</text>
</svg>