<?xml version="1.0" encoding="utf-8" ?>
<svg baseProfile="full" height="966px" version="1.1" viewBox="0 0 832 966" width="832px" xmlns="http://www.w3.org/2000/svg" xmlns:ev="http://www.w3.org/2001/xml-events" xmlns:xlink="http://www.w3.org/1999/xlink"><defs /><rect fill="white" height="966.0" width="832.0" x="0" y="0" /><g id="walls"><rect fill="black" height="13.0" width="282.0" x="43.000000000000014" y="747.5" /><rect fill="black" height="422.0" width="13.0" x="311.5" y="339.0000000000001" /><rect fill="black" height="13.0" width="282.0" x="43.000000000000014" y="339.5000000000001" /><rect fill="black" height="422.0" width="13.0" x="43.50000000000001" y="339.0000000000001" /><rect fill="black" height="13.0" width="344.0" x="445.0" y="747.5" /><rect fill="black" height="310.00000000000006" width="13.0" x="775.5" y="451.0" /><rect fill="black" height="13.0" width="344.0" x="445.0" y="451.50000000000006" /><rect fill="black" height="310.00000000000006" width="13.0" x="445.5" y="451.0" /><rect fill="black" height="13.0" width="148.0" x="311.00000000000006" y="451.50000000000006" /><rect fill="black" height="215.99999999999997" width="13.0" x="311.5" y="249.00000000000006" /><rect fill="black" height="13.0" width="68.0" x="311.00000000000006" y="249.50000000000006" /><rect fill="black" height="220.00000000000006" width="13.0" x="365.5" y="42.99999999999997" /><rect fill="black" height="13.0" width="93.99999999999999" x="365.00000000000006" y="43.49999999999996" /><rect fill="black" height="422.0" width="13.0" x="445.5" y="42.99999999999997" /><rect fill="black" height="13.0" width="344.0" x="445.0" y="909.5000000000001" /><rect fill="black" height="176.00000000000003" width="13.0" x="775.5" y="747.0000000000001" /><rect fill="black" height="176.00000000000003" width="13.0" x="445.5" y="747.0000000000001" /><rect fill="black" height="13.0" width="282.0" x="43.000000000000014" y="909.5000000000001" /><rect fill="black" height="176.00000000000003" width="13.0" x="311.5" y="747.0000000000001" /><rect fill="black" height="176.00000000000003" width="13.0" x="43.50000000000001" y="747.0000000000001" /></g><g id="doors"><rect fill="white" height="80.0" width="20.8" x="313.6" y="528.8449197860963" /><path d="M 396.0,608.8 A 72.0,72.0 0 0,1 324.0,536.8" fill="none" stroke="black" stroke-width="0.8" /><line stroke="black" stroke-width="1" x1="324.0" x2="396.00000000000006" y1="608.8449197860964" y2="608.8449197860964" /><rect fill="white" height="20.8" width="80.0" x="130.6651270207852" y="749.6046189376444" /><path d="M 130.7,688.0 A 72.0,72.0 0 0,0 202.7,760.0" fill="none" stroke="black" stroke-width="0.8" /><line stroke="black" stroke-width="1" x1="130.6651270207852" x2="130.6651270207852" y1="760.0046189376444" y2="688.0046189376444" /><rect fill="white" height="80.0" width="20.8" x="435.6000000000001" y="566.0" /><path d="M 518.0,646.0 A 72.0,72.0 0 0,1 446.0,574.0" fill="none" stroke="black" stroke-width="0.8" /><line stroke="black" stroke-width="1" x1="446.0000000000001" x2="518.0000000000001" y1="646.0000000000001" y2="646.0000000000001" /><rect fill="white" height="20.8" width="80.0" x="581.0" y="749.6" /><path d="M 581.0,688.0 A 72.0,72.0 0 0,0 653.0,760.0" fill="none" stroke="black" stroke-width="0.8" /><line stroke="black" stroke-width="1" x1="581.0" x2="581.0" y1="760.0" y2="688.0000000000001" /><rect fill="white" height="80.0" width="20.8" x="447.6" y="738.0000000000001" /><path d="M 530.0,818.0 A 72.0,72.0 0 0,1 458.0,746.0" fill="none" stroke="black" stroke-width="0.8" /><line stroke="black" stroke-width="1" x1="458.0" x2="530.0" y1="818.0" y2="818.0" /><rect fill="white" height="80.0" width="20.8" x="301.6" y="800.0" /><path d="M 384.0,880.0 A 72.0,72.0 0 0,1 312.0,808.0" fill="none" stroke="black" stroke-width="0.8" /><line stroke="black" stroke-width="1" x1="312.0" x2="384.00000000000006" y1="880.0000000000001" y2="880.0000000000001" /></g><g id="windows"><rect fill="white" height="94.0" width="18.2" x="308.90000000000003" y="286.99999999999994" /><line stroke="black" stroke-width="1" x1="314.75" x2="314.75" y1="381.0" y2="286.99999999999994" /><line stroke="black" stroke-width="1" x1="321.25000000000006" x2="321.25000000000006" y1="381.0" y2="286.99999999999994" /><line stroke="black" stroke-width="1" x1="311.5" x2="324.5" y1="381.0" y2="381.0" /><line stroke="black" stroke-width="1" x1="311.5" x2="324.5" y1="286.99999999999994" y2="286.99999999999994" /><rect fill="white" height="122.0" width="18.2" x="442.90000000000003" y="142.99999999999997" /><line stroke="black" stroke-width="1" x1="448.75" x2="448.75" y1="265.0" y2="142.99999999999997" /><line stroke="black" stroke-width="1" x1="455.25" x2="455.25" y1="265.0" y2="142.99999999999997" /><line stroke="black" stroke-width="1" x1="445.5" x2="458.5" y1="265.0" y2="265.0" /><line stroke="black" stroke-width="1" x1="445.5" x2="458.5" y1="142.99999999999997" y2="142.99999999999997" /></g></svg>