<svg xmlns="http://www.w3.org/2000/svg" viewBox="0 0 274 152" width="274" height="152">
<rect width="100%" height="100%" fill="#1a1a2e"/>
<g transform="translate(50.0,50.0)">
<line x1="183.6" y1="47.3" x2="-10.4" y2="-1.4" stroke="#ff6b35" stroke-width="3" opacity="1.00"/>
<circle cx="86.6" cy="23.0" r="4" fill="#00ff88" opacity="0.8"/>
<line x1="-11.5" y1="44.6" x2="180.7" y2="25.0" stroke="#ff6b35" stroke-width="3" opacity="1.00"/>
<circle cx="84.6" cy="34.8" r="4" fill="#00ff88" opacity="0.8"/>
<line x1="166.3" y1="-23.3" x2="-7.3" y2="73.7" stroke="#ff6b35" stroke-width="3" opacity="1.00"/>
<circle cx="79.5" cy="25.2" r="4" fill="#00ff88" opacity="0.8"/>
<line x1="105.0" y1="114.3" x2="26.0" y2="-69.4" stroke="#ff6b35" stroke-width="3" opacity="1.00"/>
<circle cx="65.5" cy="22.5" r="4" fill="#00ff88" opacity="0.8"/>
<line x1="177.1" y1="47.7" x2="-11.5" y2="-1.9" stroke="#ff6b35" stroke-width="3" opacity="1.00"/>
<circle cx="82.8" cy="22.9" r="4" fill="#00ff88" opacity="0.8"/>
<line x1="116.7" y1="-63.5" x2="40.1" y2="119.0" stroke="#ff6b35" stroke-width="3" opacity="1.00"/>
<circle cx="78.4" cy="27.7" r="4" fill="#00ff88" opacity="0.8"/>
<line x1="24.5" y1="117.4" x2="89.0" y2="-71.9" stroke="#ff6b35" stroke-width="3" opacity="1.00"/>
<circle cx="56.7" cy="22.7" r="4" fill="#00ff88" opacity="0.8"/>
<line x1="170.8" y1="68.8" x2="-6.6" y2="-23.4" stroke="#ff6b35" stroke-width="3" opacity="1.00"/>
<circle cx="82.1" cy="22.7" r="4" fill="#00ff88" opacity="0.8"/>
</g></svg>