<svg xmlns="http://www.w3.org/2000/svg" viewBox="0 0 274 152" width="274" height="152">
<rect width="100%" height="100%" fill="#1a1a2e"/>
<g transform="translate(50.0,50.0)">
<line x1="108.3" y1="93.5" x2="-18.8" y2="-60.9" stroke="#ff6b35" stroke-width="3" opacity="0.16"/>
<circle cx="44.7" cy="16.3" r="4" fill="#00ff88" opacity="0.8"/>
<line x1="119.9" y1="76.6" x2="-34.7" y2="-50.1" stroke="#ff6b35" stroke-width="3" opacity="0.11"/>
<circle cx="42.6" cy="13.3" r="4" fill="#00ff88" opacity="0.8"/>
<line x1="129.4" y1="80.9" x2="-44.7" y2="-17.5" stroke="#ff6b35" stroke-width="3" opacity="0.10"/>
<circle cx="42.4" cy="31.7" r="4" fill="#00ff88" opacity="0.8"/>
<line x1="131.1" y1="-40.0" x2="-36.8" y2="68.5" stroke="#ff6b35" stroke-width="3" opacity="0.07"/>
<circle cx="47.2" cy="14.3" r="4" fill="#00ff88" opacity="0.8"/>
<line x1="92.5" y1="117.1" x2="-9.3" y2="-55.1" stroke="#ff6b35" stroke-width="3" opacity="0.18"/>
<circle cx="41.6" cy="31.0" r="4" fill="#00ff88" opacity="0.8"/>
<line x1="128.1" y1="57.8" x2="-48.2" y2="-36.5" stroke="#ff6b35" stroke-width="3" opacity="0.12"/>
<circle cx="39.9" cy="10.6" r="4" fill="#00ff88" opacity="0.8"/>
<line x1="-46.0" y1="74.9" x2="129.8" y2="-20.5" stroke="#ff6b35" stroke-width="3" opacity="0.15"/>
<circle cx="41.9" cy="27.2" r="4" fill="#00ff88" opacity="0.8"/>
<line x1="-15.6" y1="107.4" x2="101.0" y2="-55.1" stroke="#ff6b35" stroke-width="3" opacity="0.08"/>
<circle cx="42.7" cy="26.2" r="4" fill="#00ff88" opacity="0.8"/>
<line x1="171.1" y1="71.1" x2="-3.2" y2="-26.7" stroke="#ff6b35" stroke-width="3" opacity="0.06"/>
<circle cx="84.0" cy="22.2" r="4" fill="#00ff88" opacity="0.8"/>
<line x1="171.6" y1="69.5" x2="-4.3" y2="-25.7" stroke="#ff6b35" stroke-width="3" opacity="0.07"/>
<circle cx="83.6" cy="21.9" r="4" fill="#00ff88" opacity="0.8"/>
<line x1="263.4" y1="85.1" x2="80.3" y2="4.8" stroke="#ff6b35" stroke-width="3" opacity="0.11"/>
<circle cx="171.9" cy="45.0" r="4" fill="#00ff88" opacity="0.8"/>
<line x1="130.0" y1="58.2" x2="-46.7" y2="-35.4" stroke="#ff6b35" stroke-width="3" opacity="0.08"/>
<circle cx="41.7" cy="11.4" r="4" fill="#00ff88" opacity="0.8"/>
<line x1="132.6" y1="53.6" x2="-48.4" y2="-30.7" stroke="#ff6b35" stroke-width="3" opacity="0.07"/>
<circle cx="42.1" cy="11.4" r="4" fill="#00ff88" opacity="0.8"/>
<line x1="134.9" y1="-63.5" x2="37.6" y2="111.1" stroke="#ff6b35" stroke-width="3" opacity="0.09"/>
<circle cx="86.2" cy="23.8" r="4" fill="#00ff88" opacity="0.8"/>
<line x1="134.5" y1="52.8" x2="-47.7" y2="-29.7" stroke="#ff6b35" stroke-width="3" opacity="0.07"/>
<circle cx="43.4" cy="11.6" r="4" fill="#00ff88" opacity="0.8"/>
<line x1="238.0" y1="73.3" x2="51.4" y2="1.8" stroke="#ff6b35" stroke-width="3" opacity="0.39"/>
<circle cx="144.7" cy="37.6" r="4" fill="#00ff88" opacity="0.8"/>
<line x1="102.7" y1="43.1" x2="-80.4" y2="-37.4" stroke="#ff6b35" stroke-width="3" opacity="0.14"/>
<circle cx="11.2" cy="2.9" r="4" fill="#00ff88" opacity="0.8"/>
<line x1="124.4" y1="48.4" x2="-59.3" y2="-30.3" stroke="#ff6b35" stroke-width="3" opacity="0.15"/>
<circle cx="32.6" cy="9.0" r="4" fill="#00ff88" opacity="0.8"/>
<line x1="151.0" y1="67.3" x2="-38.7" y2="3.8" stroke="#ff6b35" stroke-width="3" opacity="0.37"/>
<circle cx="56.1" cy="35.6" r="4" fill="#00ff88" opacity="0.8"/>
<line x1="104.9" y1="37.2" x2="-83.1" y2="-31.0" stroke="#ff6b35" stroke-width="3" opacity="0.32"/>
<circle cx="10.9" cy="3.1" r="4" fill="#00ff88" opacity="0.8"/>
<line x1="134.6" y1="51.1" x2="-48.7" y2="-28.0" stroke="#ff6b35" stroke-width="3" opacity="0.08"/>
<circle cx="42.9" cy="11.6" r="4" fill="#00ff88" opacity="0.8"/>
<line x1="264.2" y1="79.7" x2="77.4" y2="8.7" stroke="#ff6b35" stroke-width="3" opacity="0.35"/>
<circle cx="170.8" cy="44.2" r="4" fill="#00ff88" opacity="0.8"/>
<line x1="157.4" y1="55.6" x2="-27.0" y2="-21.8" stroke="#ff6b35" stroke-width="3" opacity="0.06"/>
<circle cx="65.2" cy="16.9" r="4" fill="#00ff88" opacity="0.8"/>
<line x1="153.1" y1="47.5" x2="-33.1" y2="-12.0" stroke="#ff6b35" stroke-width="3" opacity="0.09"/>
<circle cx="60.0" cy="17.7" r="4" fill="#00ff88" opacity="0.8"/>
<line x1="129.4" y1="33.9" x2="-59.5" y2="-14.7" stroke="#ff6b35" stroke-width="3" opacity="0.32"/>
<circle cx="34.9" cy="9.6" r="4" fill="#00ff88" opacity="0.8"/>
<line x1="228.5" y1="59.0" x2="41.4" y2="10.4" stroke="#ff6b35" stroke-width="3" opacity="0.16"/>
<circle cx="134.9" cy="34.7" r="4" fill="#00ff88" opacity="0.8"/>
<line x1="102.6" y1="35.1" x2="-86.2" y2="-30.9" stroke="#ff6b35" stroke-width="3" opacity="0.08"/>
<circle cx="8.2" cy="2.1" r="4" fill="#00ff88" opacity="0.8"/>
<line x1="207.0" y1="63.0" x2="22.7" y2="-3.3" stroke="#ff6b35" stroke-width="3" opacity="0.17"/>
<circle cx="114.8" cy="29.8" r="4" fill="#00ff88" opacity="0.8"/>
<line x1="168.5" y1="49.1" x2="-16.7" y2="-9.9" stroke="#ff6b35" stroke-width="3" opacity="0.07"/>
<circle cx="75.9" cy="19.6" r="4" fill="#00ff88" opacity="0.8"/>
<line x1="211.2" y1="64.4" x2="24.3" y2="-4.0" stroke="#ff6b35" stroke-width="3" opacity="0.10"/>
<circle cx="117.8" cy="30.2" r="4" fill="#00ff88" opacity="0.8"/>
<line x1="75.2" y1="123.6" x2="6.9" y2="-64.4" stroke="#ff6b35" stroke-width="3" opacity="0.11"/>
<circle cx="41.1" cy="29.6" r="4" fill="#00ff88" opacity="0.8"/>
<line x1="206.7" y1="59.4" x2="19.2" y2="0.4" stroke="#ff6b35" stroke-width="3" opacity="0.06"/>
<circle cx="112.9" cy="29.9" r="4" fill="#00ff88" opacity="0.8"/>
<line x1="96.8" y1="45.2" x2="-83.4" y2="-39.8" stroke="#ff6b35" stroke-width="3" opacity="0.07"/>
<circle cx="6.7" cy="2.7" r="4" fill="#00ff88" opacity="0.8"/>
<line x1="215.5" y1="63.8" x2="27.9" y2="-0.5" stroke="#ff6b35" stroke-width="3" opacity="0.08"/>
<circle cx="121.7" cy="31.6" r="4" fill="#00ff88" opacity="0.8"/>
<line x1="212.9" y1="58.6" x2="21.3" y2="1.4" stroke="#ff6b35" stroke-width="3" opacity="1.00"/>
<circle cx="117.1" cy="30.0" r="4" fill="#00ff88" opacity="0.8"/>
<line x1="198.6" y1="52.7" x2="5.8" y2="-0.6" stroke="#ff6b35" stroke-width="3" opacity="1.00"/>
<circle cx="102.2" cy="26.1" r="4" fill="#00ff88" opacity="0.8"/>
<line x1="114.1" y1="33.3" x2="-77.2" y2="-23.1" stroke="#ff6b35" stroke-width="3" opacity="0.20"/>
<circle cx="18.5" cy="5.1" r="4" fill="#00ff88" opacity="0.8"/>
<line x1="248.8" y1="65.9" x2="58.8" y2="12.4" stroke="#ff6b35" stroke-width="3" opacity="0.22"/>
<circle cx="153.8" cy="39.1" r="4" fill="#00ff88" opacity="0.8"/>
<line x1="252.1" y1="66.8" x2="59.6" y2="12.7" stroke="#ff6b35" stroke-width="3" opacity="1.00"/>
<circle cx="155.8" cy="39.8" r="4" fill="#00ff88" opacity="0.8"/>
<line x1="13.1" y1="117.3" x2="75.1" y2="-72.6" stroke="#ff6b35" stroke-width="3" opacity="0.14"/>
<circle cx="44.1" cy="22.4" r="4" fill="#00ff88" opacity="0.8"/>
<line x1="103.1" y1="39.1" x2="-83.1" y2="-33.6" stroke="#ff6b35" stroke-width="3" opacity="0.19"/>
<circle cx="10.0" cy="2.7" r="4" fill="#00ff88" opacity="0.8"/>
<line x1="176.8" y1="49.1" x2="-12.8" y2="-2.5" stroke="#ff6b35" stroke-width="3" opacity="0.14"/>
<circle cx="82.0" cy="23.3" r="4" fill="#00ff88" opacity="0.8"/>
<line x1="233.3" y1="64.6" x2="43.0" y2="7.2" stroke="#ff6b35" stroke-width="3" opacity="1.00"/>
<circle cx="138.1" cy="35.9" r="4" fill="#00ff88" opacity="0.8"/>
<line x1="122.8" y1="-68.9" x2="49.8" y2="117.3" stroke="#ff6b35" stroke-width="3" opacity="0.13"/>
<circle cx="86.3" cy="24.2" r="4" fill="#00ff88" opacity="0.8"/>
<line x1="240.0" y1="64.1" x2="47.8" y2="9.4" stroke="#ff6b35" stroke-width="3" opacity="1.00"/>
<circle cx="143.9" cy="36.8" r="4" fill="#00ff88" opacity="0.8"/>
<line x1="131.1" y1="38.2" x2="-60.2" y2="-20.3" stroke="#ff6b35" stroke-width="3" opacity="0.56"/>
<circle cx="35.5" cy="9.0" r="4" fill="#00ff88" opacity="0.8"/>
<line x1="151.3" y1="43.6" x2="-36.0" y2="-13.1" stroke="#ff6b35" stroke-width="3" opacity="0.06"/>
<circle cx="57.6" cy="15.3" r="4" fill="#00ff88" opacity="0.8"/>
<line x1="121.3" y1="33.1" x2="-71.6" y2="-19.8" stroke="#ff6b35" stroke-width="3" opacity="1.00"/>
<circle cx="24.9" cy="6.6" r="4" fill="#00ff88" opacity="0.8"/>
<line x1="170.7" y1="49.3" x2="-19.6" y2="-10.0" stroke="#ff6b35" stroke-width="3" opacity="0.31"/>
<circle cx="75.5" cy="19.6" r="4" fill="#00ff88" opacity="0.8"/>
<line x1="130.1" y1="37.8" x2="-60.6" y2="-20.6" stroke="#ff6b35" stroke-width="3" opacity="0.12"/>
<circle cx="34.7" cy="8.6" r="4" fill="#00ff88" opacity="0.8"/>
<line x1="173.6" y1="47.2" x2="-18.5" y2="-7.0" stroke="#ff6b35" stroke-width="3" opacity="0.26"/>
<circle cx="77.6" cy="20.1" r="4" fill="#00ff88" opacity="0.8"/>
<line x1="219.8" y1="59.7" x2="28.1" y2="3.4" stroke="#ff6b35" stroke-width="3" opacity="1.00"/>
<circle cx="123.9" cy="31.5" r="4" fill="#00ff88" opacity="0.8"/>
<line x1="233.2" y1="60.1" x2="39.7" y2="9.3" stroke="#ff6b35" stroke-width="3" opacity="1.00"/>
<circle cx="136.5" cy="34.7" r="4" fill="#00ff88" opacity="0.8"/>
<line x1="155.6" y1="61.3" x2="-34.9" y2="11.9" stroke="#ff6b35" stroke-width="3" opacity="0.09"/>
<circle cx="60.3" cy="36.6" r="4" fill="#00ff88" opacity="0.8"/>
<line x1="176.9" y1="45.3" x2="-16.8" y2="-4.5" stroke="#ff6b35" stroke-width="3" opacity="1.00"/>
<circle cx="80.0" cy="20.4" r="4" fill="#00ff88" opacity="0.8"/>
<line x1="128.8" y1="34.4" x2="-62.1" y2="-15.4" stroke="#ff6b35" stroke-width="3" opacity="0.08"/>
<circle cx="33.3" cy="9.5" r="4" fill="#00ff88" opacity="0.8"/>
<line x1="157.4" y1="60.8" x2="-36.5" y2="11.9" stroke="#ff6b35" stroke-width="3" opacity="1.00"/>
<circle cx="60.4" cy="36.4" r="4" fill="#00ff88" opacity="0.8"/>
<line x1="107.0" y1="28.1" x2="-86.3" y2="-22.7" stroke="#ff6b35" stroke-width="3" opacity="0.35"/>
<circle cx="10.3" cy="2.7" r="4" fill="#00ff88" opacity="0.8"/>
<line x1="126.6" y1="31.7" x2="-67.0" y2="-16.5" stroke="#ff6b35" stroke-width="3" opacity="0.57"/>
<circle cx="29.8" cy="7.6" r="4" fill="#00ff88" opacity="0.8"/>
<line x1="171.1" y1="45.1" x2="-19.8" y2="-6.0" stroke="#ff6b35" stroke-width="3" opacity="0.06"/>
<circle cx="75.7" cy="19.5" r="4" fill="#00ff88" opacity="0.8"/>
<line x1="172.0" y1="44.6" x2="-19.1" y2="-5.1" stroke="#ff6b35" stroke-width="3" opacity="0.13"/>
<circle cx="76.4" cy="19.7" r="4" fill="#00ff88" opacity="0.8"/>
<line x1="219.5" y1="60.7" x2="28.5" y2="3.1" stroke="#ff6b35" stroke-width="3" opacity="0.11"/>
<circle cx="124.0" cy="31.9" r="4" fill="#00ff88" opacity="0.8"/>
<line x1="150.2" y1="40.1" x2="-42.7" y2="-12.2" stroke="#ff6b35" stroke-width="3" opacity="0.21"/>
<circle cx="53.7" cy="14.0" r="4" fill="#00ff88" opacity="0.8"/>
<line x1="127.2" y1="31.9" x2="-67.2" y2="-15.1" stroke="#ff6b35" stroke-width="3" opacity="0.64"/>
<circle cx="30.0" cy="8.4" r="4" fill="#00ff88" opacity="0.8"/>
<line x1="223.5" y1="57.0" x2="29.9" y2="6.7" stroke="#ff6b35" stroke-width="3" opacity="0.06"/>
<circle cx="126.7" cy="31.9" r="4" fill="#00ff88" opacity="0.8"/>
<line x1="175.2" y1="42.5" x2="-16.7" y2="-2.0" stroke="#ff6b35" stroke-width="3" opacity="0.21"/>
<circle cx="79.2" cy="20.2" r="4" fill="#00ff88" opacity="0.8"/>
<line x1="118.3" y1="29.0" x2="-76.1" y2="-17.9" stroke="#ff6b35" stroke-width="3" opacity="1.00"/>
<circle cx="21.1" cy="5.5" r="4" fill="#00ff88" opacity="0.8"/>
<line x1="150.8" y1="38.7" x2="-41.2" y2="-10.7" stroke="#ff6b35" stroke-width="3" opacity="0.81"/>
<circle cx="54.8" cy="14.0" r="4" fill="#00ff88" opacity="0.8"/>
<line x1="200.8" y1="50.5" x2="7.2" y2="2.8" stroke="#ff6b35" stroke-width="3" opacity="1.00"/>
<circle cx="104.0" cy="26.7" r="4" fill="#00ff88" opacity="0.8"/>
<line x1="161.9" y1="40.0" x2="-31.0" y2="-5.7" stroke="#ff6b35" stroke-width="3" opacity="0.13"/>
<circle cx="65.5" cy="17.1" r="4" fill="#00ff88" opacity="0.8"/>
<line x1="16.0" y1="118.1" x2="72.4" y2="-73.8" stroke="#ff6b35" stroke-width="3" opacity="1.00"/>
<circle cx="44.2" cy="22.1" r="4" fill="#00ff88" opacity="0.8"/>
<line x1="137.5" y1="36.3" x2="-55.8" y2="-14.5" stroke="#ff6b35" stroke-width="3" opacity="0.09"/>
<circle cx="40.8" cy="10.9" r="4" fill="#00ff88" opacity="0.8"/>
<line x1="133.2" y1="34.5" x2="-60.6" y2="-14.9" stroke="#ff6b35" stroke-width="3" opacity="1.00"/>
<circle cx="36.3" cy="9.8" r="4" fill="#00ff88" opacity="0.8"/>
<line x1="158.3" y1="42.0" x2="-34.5" y2="-10.0" stroke="#ff6b35" stroke-width="3" opacity="0.16"/>
<circle cx="61.9" cy="16.0" r="4" fill="#00ff88" opacity="0.8"/>
<line x1="207.4" y1="51.1" x2="12.7" y2="5.3" stroke="#ff6b35" stroke-width="3" opacity="0.18"/>
<circle cx="110.1" cy="28.2" r="4" fill="#00ff88" opacity="0.8"/>
<line x1="179.7" y1="46.6" x2="-10.2" y2="-4.2" stroke="#ff6b35" stroke-width="3" opacity="0.08"/>
<circle cx="84.8" cy="21.2" r="4" fill="#00ff88" opacity="0.8"/>
<line x1="200.7" y1="51.4" x2="7.0" y2="1.8" stroke="#ff6b35" stroke-width="3" opacity="0.54"/>
<circle cx="103.9" cy="26.6" r="4" fill="#00ff88" opacity="0.8"/>
<line x1="157.4" y1="60.9" x2="-36.2" y2="12.9" stroke="#ff6b35" stroke-width="3" opacity="0.14"/>
<circle cx="60.6" cy="36.9" r="4" fill="#00ff88" opacity="0.8"/>
<line x1="150.7" y1="38.1" x2="-43.3" y2="-10.5" stroke="#ff6b35" stroke-width="3" opacity="1.00"/>
<circle cx="53.7" cy="13.8" r="4" fill="#00ff88" opacity="0.8"/>
<line x1="174.3" y1="47.5" x2="-18.1" y2="-7.4" stroke="#ff6b35" stroke-width="3" opacity="0.20"/>
<circle cx="78.1" cy="20.1" r="4" fill="#00ff88" opacity="0.8"/>
<line x1="194.3" y1="49.1" x2="2.9" y2="0.4" stroke="#ff6b35" stroke-width="3" opacity="0.10"/>
<circle cx="98.6" cy="24.8" r="4" fill="#00ff88" opacity="0.8"/>
<line x1="105.8" y1="25.6" x2="-88.7" y2="-21.1" stroke="#ff6b35" stroke-width="3" opacity="0.09"/>
<circle cx="8.6" cy="2.2" r="4" fill="#00ff88" opacity="0.8"/>
<line x1="139.4" y1="46.3" x2="-49.9" y2="-17.2" stroke="#ff6b35" stroke-width="3" opacity="0.06"/>
<circle cx="44.7" cy="14.6" r="4" fill="#00ff88" opacity="0.8"/>
<line x1="168.1" y1="38.9" x2="-26.5" y2="-3.7" stroke="#ff6b35" stroke-width="3" opacity="0.06"/>
<circle cx="70.8" cy="17.6" r="4" fill="#00ff88" opacity="0.8"/>
<line x1="207.9" y1="51.3" x2="13.4" y2="5.0" stroke="#ff6b35" stroke-width="3" opacity="0.19"/>
<circle cx="110.6" cy="28.1" r="4" fill="#00ff88" opacity="0.8"/>
<line x1="244.8" y1="61.4" x2="52.7" y2="15.0" stroke="#ff6b35" stroke-width="3" opacity="0.09"/>
<circle cx="148.7" cy="38.2" r="4" fill="#00ff88" opacity="0.8"/>
<line x1="115.4" y1="28.7" x2="-79.2" y2="-17.2" stroke="#ff6b35" stroke-width="3" opacity="0.34"/>
<circle cx="18.1" cy="5.7" r="4" fill="#00ff88" opacity="0.8"/>
<line x1="66.0" y1="126.6" x2="16.5" y2="-67.2" stroke="#ff6b35" stroke-width="3" opacity="0.06"/>
<circle cx="41.3" cy="29.7" r="4" fill="#00ff88" opacity="0.8"/>
<line x1="207.8" y1="52.4" x2="16.4" y2="4.1" stroke="#ff6b35" stroke-width="3" opacity="0.07"/>
<circle cx="112.1" cy="28.2" r="4" fill="#00ff88" opacity="0.8"/>
<line x1="14.8" y1="109.8" x2="73.4" y2="-81.4" stroke="#ff6b35" stroke-width="3" opacity="0.16"/>
<circle cx="44.1" cy="14.2" r="4" fill="#00ff88" opacity="0.8"/>
<line x1="108.1" y1="24.9" x2="-87.1" y2="-16.8" stroke="#ff6b35" stroke-width="3" opacity="0.15"/>
<circle cx="10.5" cy="4.1" r="4" fill="#00ff88" opacity="0.8"/>
<line x1="68.1" y1="114.7" x2="22.5" y2="-80.0" stroke="#ff6b35" stroke-width="3" opacity="0.11"/>
<circle cx="45.3" cy="17.4" r="4" fill="#00ff88" opacity="0.8"/>
<line x1="211.4" y1="50.7" x2="16.4" y2="6.9" stroke="#ff6b35" stroke-width="3" opacity="0.07"/>
<circle cx="113.9" cy="28.8" r="4" fill="#00ff88" opacity="0.8"/>
<line x1="128.2" y1="30.9" x2="-66.6" y2="-14.3" stroke="#ff6b35" stroke-width="3" opacity="0.44"/>
<circle cx="30.8" cy="8.3" r="4" fill="#00ff88" opacity="0.8"/>
<line x1="244.6" y1="62.7" x2="50.8" y2="13.3" stroke="#ff6b35" stroke-width="3" opacity="0.07"/>
<circle cx="147.7" cy="38.0" r="4" fill="#00ff88" opacity="0.8"/>
<line x1="200.8" y1="48.0" x2="6.1" y2="4.8" stroke="#ff6b35" stroke-width="3" opacity="0.07"/>
<circle cx="103.4" cy="26.4" r="4" fill="#00ff88" opacity="0.8"/>
<line x1="242.5" y1="61.4" x2="48.5" y2="12.7" stroke="#ff6b35" stroke-width="3" opacity="0.10"/>
<circle cx="145.5" cy="37.0" r="4" fill="#00ff88" opacity="0.8"/>
<line x1="233.3" y1="60.1" x2="40.3" y2="9.7" stroke="#ff6b35" stroke-width="3" opacity="0.08"/>
<circle cx="136.8" cy="34.9" r="4" fill="#00ff88" opacity="0.8"/>
<line x1="137.3" y1="36.0" x2="-56.2" y2="-14.6" stroke="#ff6b35" stroke-width="3" opacity="0.06"/>
<circle cx="40.5" cy="10.7" r="4" fill="#00ff88" opacity="0.8"/>
<line x1="123.2" y1="26.8" x2="-72.9" y2="-12.3" stroke="#ff6b35" stroke-width="3" opacity="0.19"/>
<circle cx="25.2" cy="7.3" r="4" fill="#00ff88" opacity="0.8"/>
<line x1="104.5" y1="24.9" x2="-90.1" y2="-20.9" stroke="#ff6b35" stroke-width="3" opacity="0.41"/>
<circle cx="7.2" cy="2.0" r="4" fill="#00ff88" opacity="0.8"/>
<line x1="120.7" y1="29.1" x2="-72.6" y2="-17.5" stroke="#ff6b35" stroke-width="3" opacity="0.14"/>
<circle cx="24.1" cy="5.8" r="4" fill="#00ff88" opacity="0.8"/>
<line x1="137.1" y1="33.0" x2="-57.7" y2="-11.3" stroke="#ff6b35" stroke-width="3" opacity="0.29"/>
<circle cx="39.7" cy="10.8" r="4" fill="#00ff88" opacity="0.8"/>
<line x1="158.8" y1="59.3" x2="-35.5" y2="14.0" stroke="#ff6b35" stroke-width="3" opacity="0.09"/>
<circle cx="61.6" cy="36.6" r="4" fill="#00ff88" opacity="0.8"/>
<line x1="246.2" y1="59.1" x2="51.6" y2="17.3" stroke="#ff6b35" stroke-width="3" opacity="0.08"/>
<circle cx="148.9" cy="38.2" r="4" fill="#00ff88" opacity="0.8"/>
<line x1="155.5" y1="52.7" x2="-41.5" y2="18.4" stroke="#ff6b35" stroke-width="3" opacity="0.09"/>
<circle cx="57.0" cy="35.5" r="4" fill="#00ff88" opacity="0.8"/>
<line x1="220.9" y1="49.6" x2="24.3" y2="12.6" stroke="#ff6b35" stroke-width="3" opacity="0.34"/>
<circle cx="122.6" cy="31.1" r="4" fill="#00ff88" opacity="0.8"/>
<line x1="126.0" y1="28.2" x2="-69.8" y2="-12.4" stroke="#ff6b35" stroke-width="3" opacity="0.38"/>
<circle cx="28.1" cy="7.9" r="4" fill="#00ff88" opacity="0.8"/>
<line x1="168.7" y1="58.4" x2="-27.4" y2="19.3" stroke="#ff6b35" stroke-width="3" opacity="0.28"/>
<circle cx="70.7" cy="38.8" r="4" fill="#00ff88" opacity="0.8"/>
<line x1="155.1" y1="38.6" x2="-39.0" y2="-9.5" stroke="#ff6b35" stroke-width="3" opacity="0.08"/>
<circle cx="58.1" cy="14.6" r="4" fill="#00ff88" opacity="0.8"/>
<line x1="229.1" y1="51.2" x2="32.3" y2="15.5" stroke="#ff6b35" stroke-width="3" opacity="0.13"/>
<circle cx="130.7" cy="33.4" r="4" fill="#00ff88" opacity="0.8"/>
<line x1="252.4" y1="62.1" x2="57.6" y2="17.0" stroke="#ff6b35" stroke-width="3" opacity="0.07"/>
<circle cx="155.0" cy="39.5" r="4" fill="#00ff88" opacity="0.8"/>
<line x1="150.7" y1="35.0" x2="-44.8" y2="-7.4" stroke="#ff6b35" stroke-width="3" opacity="0.06"/>
<circle cx="52.9" cy="13.8" r="4" fill="#00ff88" opacity="0.8"/>
<line x1="188.4" y1="45.9" x2="-6.2" y2="0.4" stroke="#ff6b35" stroke-width="3" opacity="0.12"/>
<circle cx="91.1" cy="23.2" r="4" fill="#00ff88" opacity="0.8"/>
<line x1="129.1" y1="33.6" x2="-64.5" y2="-16.4" stroke="#ff6b35" stroke-width="3" opacity="0.11"/>
<circle cx="32.3" cy="8.6" r="4" fill="#00ff88" opacity="0.8"/>
<line x1="162.9" y1="39.2" x2="-31.8" y2="-5.3" stroke="#ff6b35" stroke-width="3" opacity="0.07"/>
<circle cx="65.6" cy="17.0" r="4" fill="#00ff88" opacity="0.8"/>
<line x1="237.3" y1="56.7" x2="41.9" y2="14.9" stroke="#ff6b35" stroke-width="3" opacity="0.15"/>
<circle cx="139.6" cy="35.8" r="4" fill="#00ff88" opacity="0.8"/>
<line x1="106.4" y1="25.3" x2="-88.3" y2="-20.4" stroke="#ff6b35" stroke-width="3" opacity="0.09"/>
<circle cx="9.0" cy="2.5" r="4" fill="#00ff88" opacity="0.8"/>
<line x1="114.8" y1="24.6" x2="-81.3" y2="-13.6" stroke="#ff6b35" stroke-width="3" opacity="0.06"/>
<circle cx="16.8" cy="5.5" r="4" fill="#00ff88" opacity="0.8"/>
<line x1="189.3" y1="44.4" x2="-6.0" y2="2.0" stroke="#ff6b35" stroke-width="3" opacity="0.14"/>
<circle cx="91.7" cy="23.2" r="4" fill="#00ff88" opacity="0.8"/>
<line x1="112.1" y1="24.6" x2="-83.5" y2="-16.8" stroke="#ff6b35" stroke-width="3" opacity="0.08"/>
<circle cx="14.3" cy="3.9" r="4" fill="#00ff88" opacity="0.8"/>
<line x1="118.0" y1="25.9" x2="-77.7" y2="-14.0" stroke="#ff6b35" stroke-width="3" opacity="0.51"/>
<circle cx="20.2" cy="6.0" r="4" fill="#00ff88" opacity="0.8"/>
<line x1="199.0" y1="50.1" x2="5.2" y2="1.6" stroke="#ff6b35" stroke-width="3" opacity="0.09"/>
<circle cx="102.1" cy="25.8" r="4" fill="#00ff88" opacity="0.8"/>
<line x1="207.7" y1="48.8" x2="12.2" y2="6.9" stroke="#ff6b35" stroke-width="3" opacity="0.24"/>
<circle cx="110.0" cy="27.9" r="4" fill="#00ff88" opacity="0.8"/>
<line x1="166.6" y1="35.4" x2="-31.8" y2="11.6" stroke="#ff6b35" stroke-width="3" opacity="0.07"/>
<circle cx="67.4" cy="23.5" r="4" fill="#00ff88" opacity="0.8"/>
<line x1="245.1" y1="56.8" x2="49.0" y2="18.0" stroke="#ff6b35" stroke-width="3" opacity="0.10"/>
<circle cx="147.0" cy="37.4" r="4" fill="#00ff88" opacity="0.8"/>
<line x1="122.9" y1="24.7" x2="-74.0" y2="-10.6" stroke="#ff6b35" stroke-width="3" opacity="0.09"/>
<circle cx="24.4" cy="7.0" r="4" fill="#00ff88" opacity="0.8"/>
<line x1="167.7" y1="37.4" x2="-28.4" y2="-1.5" stroke="#ff6b35" stroke-width="3" opacity="0.13"/>
<circle cx="69.7" cy="17.9" r="4" fill="#00ff88" opacity="0.8"/>
<line x1="257.6" y1="62.9" x2="62.5" y2="18.7" stroke="#ff6b35" stroke-width="3" opacity="0.08"/>
<circle cx="160.0" cy="40.8" r="4" fill="#00ff88" opacity="0.8"/>
<line x1="195.1" y1="47.9" x2="0.5" y2="1.6" stroke="#ff6b35" stroke-width="3" opacity="0.07"/>
<circle cx="97.8" cy="24.7" r="4" fill="#00ff88" opacity="0.8"/>
<line x1="100.8" y1="22.6" x2="-94.4" y2="-20.7" stroke="#ff6b35" stroke-width="3" opacity="0.10"/>
<circle cx="3.2" cy="0.9" r="4" fill="#00ff88" opacity="0.8"/>
<line x1="209.4" y1="49.7" x2="13.9" y2="7.5" stroke="#ff6b35" stroke-width="3" opacity="0.68"/>
<circle cx="111.7" cy="28.6" r="4" fill="#00ff88" opacity="0.8"/>
<line x1="232.3" y1="53.7" x2="36.3" y2="14.1" stroke="#ff6b35" stroke-width="3" opacity="0.08"/>
<circle cx="134.3" cy="33.9" r="4" fill="#00ff88" opacity="0.8"/>
<line x1="117.5" y1="29.7" x2="-76.6" y2="-18.6" stroke="#ff6b35" stroke-width="3" opacity="0.06"/>
<circle cx="20.4" cy="5.5" r="4" fill="#00ff88" opacity="0.8"/>
<line x1="188.8" y1="43.6" x2="-7.1" y2="2.9" stroke="#ff6b35" stroke-width="3" opacity="0.38"/>
<circle cx="90.8" cy="23.3" r="4" fill="#00ff88" opacity="0.8"/>
<line x1="188.9" y1="41.0" x2="-7.8" y2="4.9" stroke="#ff6b35" stroke-width="3" opacity="0.06"/>
<circle cx="90.6" cy="23.0" r="4" fill="#00ff88" opacity="0.8"/>
<line x1="260.9" y1="64.8" x2="66.3" y2="18.8" stroke="#ff6b35" stroke-width="3" opacity="0.10"/>
<circle cx="163.6" cy="41.8" r="4" fill="#00ff88" opacity="0.8"/>
<line x1="244.0" y1="55.2" x2="47.2" y2="19.5" stroke="#ff6b35" stroke-width="3" opacity="0.06"/>
<circle cx="145.6" cy="37.3" r="4" fill="#00ff88" opacity="0.8"/>
<line x1="220.5" y1="47.7" x2="23.2" y2="14.8" stroke="#ff6b35" stroke-width="3" opacity="0.24"/>
<circle cx="121.8" cy="31.2" r="4" fill="#00ff88" opacity="0.8"/>
<line x1="262.5" y1="61.6" x2="66.4" y2="22.9" stroke="#ff6b35" stroke-width="3" opacity="0.08"/>
<circle cx="164.5" cy="42.3" r="4" fill="#00ff88" opacity="0.8"/>
<line x1="178.6" y1="55.2" x2="-19.3" y2="26.7" stroke="#ff6b35" stroke-width="3" opacity="0.14"/>
<circle cx="79.7" cy="41.0" r="4" fill="#00ff88" opacity="0.8"/>
<line x1="194.5" y1="46.3" x2="-0.8" y2="3.1" stroke="#ff6b35" stroke-width="3" opacity="0.20"/>
<circle cx="96.8" cy="24.7" r="4" fill="#00ff88" opacity="0.8"/>
<line x1="221.3" y1="49.1" x2="24.4" y2="13.9" stroke="#ff6b35" stroke-width="3" opacity="0.20"/>
<circle cx="122.9" cy="31.5" r="4" fill="#00ff88" opacity="0.8"/>
<line x1="139.2" y1="32.5" x2="-56.2" y2="-10.4" stroke="#ff6b35" stroke-width="3" opacity="0.08"/>
<circle cx="41.5" cy="11.0" r="4" fill="#00ff88" opacity="0.8"/>
<line x1="211.4" y1="51.8" x2="16.7" y2="5.9" stroke="#ff6b35" stroke-width="3" opacity="0.08"/>
<circle cx="114.0" cy="28.8" r="4" fill="#00ff88" opacity="0.8"/>
<line x1="163.7" y1="50.4" x2="-34.7" y2="25.0" stroke="#ff6b35" stroke-width="3" opacity="0.13"/>
<circle cx="64.5" cy="37.7" r="4" fill="#00ff88" opacity="0.8"/>
<line x1="116.2" y1="24.4" x2="-79.7" y2="-15.2" stroke="#ff6b35" stroke-width="3" opacity="0.11"/>
<circle cx="18.2" cy="4.6" r="4" fill="#00ff88" opacity="0.8"/>
<line x1="221.2" y1="49.2" x2="24.4" y2="13.6" stroke="#ff6b35" stroke-width="3" opacity="0.07"/>
<circle cx="122.8" cy="31.4" r="4" fill="#00ff88" opacity="0.8"/>
<line x1="167.1" y1="58.5" x2="-28.9" y2="18.8" stroke="#ff6b35" stroke-width="3" opacity="0.10"/>
<circle cx="69.1" cy="38.7" r="4" fill="#00ff88" opacity="0.8"/>
<line x1="129.4" y1="21.8" x2="-68.7" y2="-4.9" stroke="#ff6b35" stroke-width="3" opacity="0.07"/>
<circle cx="30.3" cy="8.4" r="4" fill="#00ff88" opacity="0.8"/>
<line x1="175.6" y1="59.5" x2="-20.8" y2="21.8" stroke="#ff6b35" stroke-width="3" opacity="0.09"/>
<circle cx="77.4" cy="40.7" r="4" fill="#00ff88" opacity="0.8"/>
<line x1="267.3" y1="64.0" x2="71.7" y2="22.4" stroke="#ff6b35" stroke-width="3" opacity="0.06"/>
<circle cx="169.5" cy="43.2" r="4" fill="#00ff88" opacity="0.8"/>
<line x1="220.9" y1="45.6" x2="23.0" y2="16.5" stroke="#ff6b35" stroke-width="3" opacity="0.06"/>
<circle cx="121.9" cy="31.1" r="4" fill="#00ff88" opacity="0.8"/>
<line x1="51.3" y1="128.1" x2="30.0" y2="-70.7" stroke="#ff6b35" stroke-width="3" opacity="0.09"/>
<circle cx="40.7" cy="28.7" r="4" fill="#00ff88" opacity="0.8"/>
<line x1="207.7" y1="39.2" x2="8.9" y2="16.6" stroke="#ff6b35" stroke-width="3" opacity="0.07"/>
<circle cx="108.3" cy="27.9" r="4" fill="#00ff88" opacity="0.8"/>
<line x1="54.9" y1="114.4" x2="33.1" y2="-84.4" stroke="#ff6b35" stroke-width="3" opacity="0.13"/>
<circle cx="44.0" cy="15.0" r="4" fill="#00ff88" opacity="0.8"/>
<line x1="39.6" y1="113.1" x2="48.7" y2="-86.7" stroke="#ff6b35" stroke-width="3" opacity="0.06"/>
<circle cx="44.2" cy="13.2" r="4" fill="#00ff88" opacity="0.8"/>
<line x1="148.4" y1="-36.3" x2="17.2" y2="114.6" stroke="#ff6b35" stroke-width="3" opacity="0.06"/>
<circle cx="82.8" cy="39.1" r="4" fill="#00ff88" opacity="0.8"/>
<line x1="163.2" y1="-19.0" x2="1.2" y2="98.3" stroke="#ff6b35" stroke-width="3" opacity="0.06"/>
<circle cx="82.2" cy="39.7" r="4" fill="#00ff88" opacity="0.8"/>
<line x1="87.5" y1="102.2" x2="0.7" y2="-77.9" stroke="#ff6b35" stroke-width="3" opacity="0.12"/>
<circle cx="44.1" cy="12.1" r="4" fill="#00ff88" opacity="0.8"/>
</g></svg>