0
SECTION
2
HEADER
0
ENDSEC
0
SECTION
2
TABLES
0
TABLE
2
LAYER
0
LAYER
2
WALLS
70
0
62
7
6
CONTINUOUS
0
LAYER
2
DOORS
70
0
62
8
6
CONTINUOUS
0
LAYER
2
ROOMS
70
0
62
3
6
CONTINUOUS
0
LAYER
2
TEXT
70
0
62
7
6
CONTINUOUS
0
ENDTAB
0
ENDSEC
0
SECTION
2
ENTITIES
0
LINE
8
WALLS
10
-3.443
20
-1.222
30
0
11
-0.763
21
-1.222
31
0
0
LINE
8
WALLS
10
-0.763
20
-1.222
30
0
11
-0.763
21
2.858
31
0
0
LINE
8
WALLS
10
-0.763
20
2.858
30
0
11
-3.443
21
2.858
31
0
0
LINE
8
WALLS
10
-3.443
20
2.858
30
0
11
-3.443
21
-1.222
31
0
0
LINE
8
WALLS
10
0.577
20
-1.222
30
0
11
3.877
21
-1.222
31
0
0
LINE
8
WALLS
10
3.877
20
-1.222
30
0
11
3.877
21
1.738
31
0
0
LINE
8
WALLS
10
3.877
20
1.738
30
0
11
0.577
21
1.738
31
0
0
LINE
8
WALLS
10
0.577
20
1.738
30
0
11
0.577
21
-1.222
31
0
0
LINE
8
WALLS
10
0.577
20
1.738
30
0
11
-0.763
21
1.738
31
0
0
LINE
8
WALLS
10
-0.763
20
1.738
30
0
11
-0.763
21
3.758
31
0
0
LINE
8
WALLS
10
-0.763
20
3.758
30
0
11
-0.223
21
3.758
31
0
0
LINE
8
WALLS
10
-0.223
20
3.758
30
0
11
-0.223
21
5.818
31
0
0
LINE
8
WALLS
10
-0.223
20
5.818
30
0
11
0.577
21
5.818
31
0
0
LINE
8
WALLS
10
0.577
20
5.818
30
0
11
0.577
21
1.738
31
0
0
LINE
8
WALLS
10
0.577
20
-2.842
30
0
11
3.877
21
-2.842
31
0
0
LINE
8
WALLS
10
3.877
20
-2.842
30
0
11
3.877
21
-1.222
31
0
0
LINE
8
WALLS
10
3.877
20
-1.222
30
0
11
0.577
21
-1.222
31
0
0
LINE
8
WALLS
10
0.577
20
-1.222
30
0
11
0.577
21
-2.842
31
0
0
LINE
8
WALLS
10
-3.443
20
-2.842
30
0
11
-0.763
21
-2.842
31
0
0
LINE
8
WALLS
10
-0.763
20
-2.842
30
0
11
-0.763
21
-1.222
31
0
0
LINE
8
WALLS
10
-0.763
20
-1.222
30
0
11
-3.443
21
-1.222
31
0
0
LINE
8
WALLS
10
-3.443
20
-1.222
30
0
11
-3.443
21
-2.842
31
0
0
TEXT
8
TEXT
10
-2.103
20
0.8180000000000001
30
0
40
0.15
1
Room 1 (10.9m2)
72
1
11
-2.103
21
0.8180000000000001
31
0
0
TEXT
8
TEXT
10
2.227
20
0.258
30
0
40
0.15
1
Room 2 (9.8m2)
72
1
11
2.227
21
0.258
31
0
0
TEXT
8
TEXT
10
-0.13633333333333333
20
3.771333333333333
30
0
40
0.15
1
Hallway (4.4m2)
72
1
11
-0.13633333333333333
21
3.771333333333333
31
0
0
TEXT
8
TEXT
10
2.227
20
-2.032
30
0
40
0.15
1
Room 3 (5.3m2)
72
1
11
2.227
21
-2.032
31
0
0
TEXT
8
TEXT
10
-2.103
20
-2.032
30
0
40
0.15
1
Closet (4.3m2)
72
1
11
-2.103
21
-2.032
31
0
0
CIRCLE
8
DOORS
10
-0.703108054382358
20
0.6295624872717296
30
0
40
0.4
0
CIRCLE
8
DOORS
10
-2.236456784174506
20
-1.282034504243751
30
0
40
0.4
0
CIRCLE
8
DOORS
10
0.5168919456176422
20
0.25801168513269257
30
0
40
0.4
0
CIRCLE
8
DOORS
10
2.266891945617642
20
-1.2819883148673075
30
0
40
0.4
0
CIRCLE
8
DOORS
10
0.6368919456176414
20
-1.4619883148673074
30
0
40
0.4
0
CIRCLE
8
DOORS
10
-0.8231080543823581
20
-2.0819883148673073
30
0
40
0.4
0
ENDSEC
0
EOF