<svg xmlns="http://www.w3.org/2000/svg" viewBox="0 0 299 202" width="299" height="202">
<defs>
  <style>
    text { font-family: monospace; fill: #888; font-size: 10px; }
    .dim { font-size: 9px; fill: #ff6b35; }
    .title { font-size: 14px; fill: #e2e8f0; font-weight: bold; }
  </style>
</defs>
<rect width="100%" height="100%" fill="#0f0f1a"/>
<text x="10" y="20" class="title">mesh2plan (unmerged) — 5 walls</text>
<line x1="19" y1="0" x2="19" y2="202" stroke="#1a1a2e" stroke-width="0.5"/>
<line x1="99" y1="0" x2="99" y2="202" stroke="#1a1a2e" stroke-width="0.5"/>
<line x1="179" y1="0" x2="179" y2="202" stroke="#1a1a2e" stroke-width="0.5"/>
<line x1="259" y1="0" x2="259" y2="202" stroke="#1a1a2e" stroke-width="0.5"/>
<line x1="0" y1="63" x2="299" y2="63" stroke="#1a1a2e" stroke-width="0.5"/>
<line x1="0" y1="143" x2="299" y2="143" stroke="#1a1a2e" stroke-width="0.5"/>
<line x1="79.7" y1="81.1" x2="219.7" y2="114.9" stroke="#ff6b35" stroke-width="6.0" stroke-linecap="round"/>
<line x1="149.7" y1="98.0" x2="153.2" y2="83.4" stroke="#ff6b35" stroke-width="1" opacity="0.4" stroke-dasharray="3,2"/>
<text x="150" y="90" class="dim" text-anchor="middle">1.80m</text>
<line x1="192.7" y1="123.2" x2="112.0" y2="104.0" stroke="#00d4ff" stroke-width="6.0" stroke-linecap="round"/>
<line x1="152.3" y1="113.6" x2="148.9" y2="128.2" stroke="#00d4ff" stroke-width="1" opacity="0.4" stroke-dasharray="3,2"/>
<text x="152" y="106" class="dim" text-anchor="middle">1.04m</text>
<line x1="109.3" y1="96.0" x2="148.1" y2="107.6" stroke="#ff3366" stroke-width="4.5" stroke-linecap="round"/>
<line x1="128.7" y1="101.8" x2="133.0" y2="87.4" stroke="#ff3366" stroke-width="1" opacity="0.4" stroke-dasharray="3,2"/>
<text x="129" y="94" class="dim" text-anchor="middle">0.51m</text>
<line x1="176.0" y1="107.0" x2="103.9" y2="91.5" stroke="#66ff66" stroke-width="2.3" stroke-linecap="round"/>
<line x1="139.9" y1="99.3" x2="136.8" y2="113.9" stroke="#66ff66" stroke-width="1" opacity="0.4" stroke-dasharray="3,2"/>
<text x="140" y="91" class="dim" text-anchor="middle">0.92m</text>
<line x1="120.8" y1="95.1" x2="112.4" y2="103.2" stroke="#ffcc00" stroke-width="2.0" stroke-linecap="round"/>
<line x1="116.6" y1="99.1" x2="127.0" y2="109.9" stroke="#ffcc00" stroke-width="1" opacity="0.4" stroke-dasharray="3,2"/>
<text x="117" y="91" class="dim" text-anchor="middle">0.15m</text>
<line x1="160" y1="172" x2="240" y2="172" stroke="white" stroke-width="2"/>
<text x="200" y="187" text-anchor="middle" fill="white" font-size="11px">1 meter</text>
<text x="289" y="20" text-anchor="end" fill="#666" font-size="10px">5 walls detected</text>
</svg>